<svg xmlns="http://www.w3.org/2000/svg" xmlns:xlink="http://www.w3.org/1999/xlink" width="164.625" height="51.25" viewBox="0 0 164.625 51.25">
  <defs>
    <filter id="사각형_35" x="0" y="0" width="164.625" height="51.25" filterUnits="userSpaceOnUse">
      <feOffset dx="1" dy="1" input="SourceAlpha"/>
      <feGaussianBlur stdDeviation="1.5" result="blur"/>
      <feFlood flood-opacity="0.161"/>
      <feComposite operator="in" in2="blur"/>
      <feComposite in="SourceGraphic"/>
    </filter>
  </defs>
  <g id="구성_요소_7_1" data-name="구성 요소 7 – 1" transform="translate(3.5 3.5)">
    <g id="그룹_17047" data-name="그룹 17047">
      <g id="구성_요소_4_46" data-name="구성 요소 4 – 46">
        <g transform="matrix(1, 0, 0, 1, -3.5, -3.5)" filter="url(#사각형_35)">
          <path id="사각형_35-2" data-name="사각형 35" d="M30,0H155.625a0,0,0,0,1,0,0V12.25a30,30,0,0,1-30,30H0a0,0,0,0,1,0,0V30A30,30,0,0,1,30,0Z" transform="translate(3.5 3.5)" fill="#848484"/>
        </g>
      </g>
      <text id="로그인" transform="translate(94.185 27.625)" fill="#fff" font-size="18" font-family="Pretendard-Black, Pretendard" font-weight="800"><tspan x="-23" y="0">로그인</tspan></text>
    </g>
    <g id="Iconly_Bold_Profile" data-name="Iconly/Bold/Profile" transform="translate(32.202 9.75)">
      <g id="Profile">
        <path id="Profile-2" data-name="Profile" d="M0,18.52c0-3.041,4.118-3.8,8.939-3.8,4.848,0,8.939.787,8.939,3.826s-4.118,3.8-8.939,3.8C4.092,22.346,0,21.559,0,18.52ZM3.024,5.912a5.915,5.915,0,1,1,5.915,5.913A5.893,5.893,0,0,1,3.024,5.912Z" fill="#fff"/>
      </g>
    </g>
  </g>
</svg>
